<svg xmlns="http://www.w3.org/2000/svg" xmlns:xlink="http://www.w3.org/1999/xlink" width="500" zoomAndPan="magnify" viewBox="0 0 375 149.999998" height="200" preserveAspectRatio="xMidYMid meet" version="1.0"><defs><g/><clipPath id="ea2b057f33"><rect x="0" width="87" y="0" height="141"/></clipPath><clipPath id="72aa467ee7"><rect x="0" width="120" y="0" height="141"/></clipPath><clipPath id="f0ed6de01e"><path d="M 251 72 L 324 72 L 324 121.277344 L 251 121.277344 Z M 251 72 " clip-rule="nonzero"/></clipPath><clipPath id="fa9386f377"><path d="M 236 9.527344 L 267 9.527344 L 267 19 L 236 19 Z M 236 9.527344 " clip-rule="nonzero"/></clipPath><clipPath id="8f71345620"><path d="M 305 30 L 336.679688 30 L 336.679688 88 L 305 88 Z M 305 30 " clip-rule="nonzero"/></clipPath><clipPath id="21cfde3f61"><path d="M 311 103 L 332 103 L 332 121.277344 L 311 121.277344 Z M 311 103 " clip-rule="nonzero"/></clipPath><clipPath id="39374d46e8"><path d="M 230 113 L 266 113 L 266 121.277344 L 230 121.277344 Z M 230 113 " clip-rule="nonzero"/></clipPath><clipPath id="d63235a342"><path d="M 237 111 L 304 111 L 304 121.277344 L 237 121.277344 Z M 237 111 " clip-rule="nonzero"/></clipPath><clipPath id="8d5d3edd29"><path d="M 275 101 L 305 101 L 305 121.277344 L 275 121.277344 Z M 275 101 " clip-rule="nonzero"/></clipPath><clipPath id="2d89ac0988"><rect x="0" width="81" y="0" height="150"/></clipPath><clipPath id="c44eb442d5"><rect x="0" width="280" y="0" height="19"/></clipPath></defs><g transform="matrix(1, 0, 0, 1, 55, -0.000000000000007527)"><g clip-path="url(#ea2b057f33)"><g fill="#020166" fill-opacity="1"><g transform="translate(0.734009, 120.521766)"><g><path d="M 79.78125 -26.84375 L 79.78125 0 L 6.328125 0 L 6.328125 -95.890625 L 37.390625 -95.890625 L 37.390625 -26.84375 Z M 79.78125 -26.84375 "/></g></g></g></g></g><g transform="matrix(1, 0, 0, 1, 116, -0.000000000000007527)"><g clip-path="url(#72aa467ee7)"><g fill="#020166" fill-opacity="1"><g transform="translate(0.76412, 120.521766)"><g><path d="M 111.8125 0 L 80.546875 0 L 80.546875 -38.546875 L 65.203125 -10.359375 L 52.9375 -10.359375 L 37.390625 -38.546875 L 37.390625 0 L 6.328125 0 L 6.328125 -95.890625 L 34.140625 -95.890625 L 59.0625 -45.84375 L 84 -95.890625 L 111.8125 -95.890625 Z M 111.8125 0 "/></g></g></g></g></g><g clip-path="url(#f0ed6de01e)"><path fill="#004aad" d="M 314.777344 117.371094 L 314.675781 116.242188 C 314.640625 115.867188 314.605469 115.5 314.550781 115.121094 C 314.453125 114.367188 314.34375 113.628906 314.226562 112.898438 L 314.042969 111.8125 C 313.980469 111.457031 313.898438 111.085938 313.824219 110.730469 L 314.457031 109.738281 L 314.773438 109.246094 C 314.882812 109.082031 314.984375 108.914062 315.078125 108.746094 L 316.25 106.707031 C 316.613281 106.015625 316.964844 105.316406 317.324219 104.621094 C 317.410156 104.445312 317.507812 104.273438 317.589844 104.09375 L 317.832031 103.558594 L 318.3125 102.492188 C 319.574219 99.625 320.601562 96.65625 321.378906 93.625 C 322.152344 90.589844 322.644531 87.488281 322.910156 84.371094 L 322.996094 83.199219 L 323.039062 82.617188 C 323.050781 82.417969 323.050781 82.226562 323.058594 82.027344 L 323.117188 79.683594 L 323.054688 77.335938 L 323.039062 76.75 L 322.996094 76.164062 L 322.949219 75.542969 C 323.542969 75.324219 323.964844 74.757812 323.964844 74.085938 C 323.964844 73.230469 323.265625 72.535156 322.410156 72.535156 C 321.554688 72.535156 320.855469 73.230469 320.855469 74.085938 C 320.855469 74.867188 321.429688 75.511719 322.175781 75.625 C 322.472656 79.777344 322.320312 83.964844 321.710938 88.085938 C 321.050781 92.390625 319.878906 96.617188 318.25 100.652344 C 316.636719 104.699219 314.488281 108.523438 311.960938 112.070312 L 311.488281 112.738281 C 311.410156 112.847656 311.332031 112.960938 311.25 113.070312 L 311 113.390625 L 309.988281 114.675781 C 309.660156 115.109375 309.296875 115.515625 308.941406 115.929688 L 307.871094 117.164062 L 306.746094 118.347656 C 306.367188 118.742188 306 119.140625 305.597656 119.511719 L 304.417969 120.636719 L 304.1875 120.859375 C 303.964844 120.738281 303.707031 120.664062 303.433594 120.664062 C 302.578125 120.664062 301.882812 121.359375 301.882812 122.21875 C 301.882812 123.074219 302.578125 123.773438 303.433594 123.773438 C 304.292969 123.773438 304.988281 123.074219 304.988281 122.21875 C 304.988281 121.910156 304.898438 121.625 304.746094 121.382812 C 307.914062 118.5 310.71875 115.230469 313.164062 111.714844 C 313.273438 112.339844 313.378906 112.976562 313.480469 113.617188 C 313.578125 114.261719 313.675781 114.914062 313.734375 115.558594 C 313.804688 116.207031 313.867188 116.863281 313.917969 117.523438 C 313.972656 118.191406 314.027344 118.863281 314.042969 119.523438 C 311.894531 122.113281 309.5 124.492188 306.953125 126.683594 C 304.398438 128.871094 301.675781 130.863281 298.804688 132.621094 C 295.925781 134.363281 292.90625 135.875 289.789062 137.140625 L 288.613281 137.601562 C 288.21875 137.757812 287.828125 137.914062 287.429688 138.042969 L 285.035156 138.851562 L 282.605469 139.542969 C 282.40625 139.597656 282.203125 139.660156 282 139.710938 L 281.382812 139.851562 L 280.152344 140.136719 C 278.347656 142.691406 276.269531 145.128906 273.957031 147.492188 C 273.535156 147.550781 273.109375 147.574219 272.679688 147.609375 L 271.402344 147.707031 L 270.125 147.796875 L 268.847656 147.835938 L 267.570312 147.863281 L 266.933594 147.878906 C 266.71875 147.882812 266.507812 147.886719 266.292969 147.878906 L 263.738281 147.8125 C 263.527344 147.804688 263.3125 147.804688 263.101562 147.789062 L 262.460938 147.746094 L 261.1875 147.648438 L 259.910156 147.550781 C 259.484375 147.507812 259.0625 147.453125 258.640625 147.398438 L 257.367188 147.242188 C 256.945312 147.1875 256.519531 147.140625 256.101562 147.0625 L 254.332031 146.753906 C 254.277344 145.949219 253.605469 145.3125 252.785156 145.3125 C 251.925781 145.3125 251.230469 146.011719 251.230469 146.867188 C 251.230469 147.722656 251.929688 148.421875 252.785156 148.421875 C 253.414062 148.421875 253.949219 148.046875 254.199219 147.515625 L 256.042969 147.835938 C 256.476562 147.917969 256.917969 147.960938 257.355469 148.019531 L 258.671875 148.183594 C 259.109375 148.234375 259.550781 148.300781 259.992188 148.335938 L 261.3125 148.4375 C 262.191406 148.496094 263.074219 148.585938 263.953125 148.59375 L 266.601562 148.660156 L 269.246094 148.601562 C 270.128906 148.59375 271.007812 148.511719 271.890625 148.449219 C 272.769531 148.382812 273.65625 148.328125 274.53125 148.203125 C 275.695312 147.003906 276.800781 145.839844 277.835938 144.574219 C 278.355469 143.953125 278.859375 143.332031 279.351562 142.710938 C 279.839844 142.082031 280.304688 141.429688 280.761719 140.792969 L 282.007812 140.503906 C 282.425781 140.414062 282.832031 140.28125 283.242188 140.167969 L 284.472656 139.820312 C 284.882812 139.703125 285.292969 139.59375 285.695312 139.449219 L 288.117188 138.628906 L 290.5 137.691406 C 293.644531 136.386719 296.691406 134.828125 299.589844 133.039062 C 302.5 131.265625 305.230469 129.207031 307.800781 126.976562 C 310.367188 124.734375 312.757812 122.300781 314.933594 119.679688 C 314.898438 118.902344 314.839844 118.128906 314.777344 117.371094 Z M 314.777344 117.371094 " fill-opacity="1" fill-rule="nonzero"/></g><path fill="#004aad" d="M 321.433594 108.546875 C 321.320312 108.523438 321.199219 108.507812 321.078125 108.507812 C 320.21875 108.507812 319.523438 109.203125 319.523438 110.058594 C 319.523438 110.917969 320.222656 111.613281 321.078125 111.613281 C 321.933594 111.613281 322.632812 110.917969 322.632812 110.058594 C 322.632812 109.601562 322.433594 109.191406 322.121094 108.910156 C 325.449219 102.582031 327.675781 95.679688 328.695312 88.609375 C 329.234375 84.960938 329.414062 81.273438 329.289062 77.601562 C 329.171875 74.085938 328.765625 70.574219 328.070312 67.117188 C 328.632812 66.882812 329.03125 66.328125 329.03125 65.683594 C 329.03125 64.824219 328.332031 64.128906 327.476562 64.128906 C 326.617188 64.128906 325.921875 64.824219 325.921875 65.683594 C 325.921875 66.480469 326.527344 67.140625 327.304688 67.226562 C 327.996094 70.652344 328.402344 74.136719 328.515625 77.625 C 328.640625 81.253906 328.460938 84.898438 327.929688 88.5 C 326.921875 95.484375 324.722656 102.300781 321.433594 108.546875 Z M 321.433594 108.546875 " fill-opacity="1" fill-rule="nonzero"/><path fill="#004aad" d="M 252.902344 18.414062 C 252.636719 17.933594 252.128906 17.609375 251.539062 17.609375 C 250.679688 17.609375 249.988281 18.304688 249.988281 19.164062 C 249.988281 20.023438 250.683594 20.714844 251.539062 20.714844 C 252.398438 20.714844 253.09375 20.023438 253.09375 19.164062 C 255.375 18.65625 257.691406 18.273438 260.015625 18.023438 C 262.597656 17.757812 265.195312 17.640625 267.785156 17.703125 C 268.523438 17.207031 269.273438 16.695312 270.046875 16.214844 C 270.820312 15.75 271.609375 15.289062 272.414062 14.832031 C 273.222656 14.359375 274.042969 13.953125 274.882812 13.535156 L 276.15625 12.914062 L 276.804688 12.605469 C 277.019531 12.503906 277.238281 12.417969 277.453125 12.320312 C 278.890625 12.582031 280.351562 12.816406 281.800781 13.179688 C 282.167969 13.265625 282.53125 13.351562 282.898438 13.4375 C 283.261719 13.523438 283.632812 13.601562 283.996094 13.710938 C 284.722656 13.921875 285.457031 14.128906 286.191406 14.339844 C 289.121094 15.246094 292.09375 16.308594 295.023438 17.683594 C 295.390625 17.851562 295.761719 18.023438 296.132812 18.191406 C 296.496094 18.375 296.859375 18.558594 297.226562 18.746094 C 297.589844 18.929688 297.957031 19.117188 298.324219 19.308594 C 298.691406 19.5 299.066406 19.675781 299.421875 19.890625 C 300.144531 20.304688 300.871094 20.726562 301.601562 21.144531 C 301.96875 21.347656 302.320312 21.585938 302.683594 21.8125 C 303.039062 22.039062 303.398438 22.269531 303.761719 22.503906 C 304.117188 22.738281 304.484375 22.960938 304.839844 23.207031 C 305.191406 23.453125 305.542969 23.703125 305.898438 23.953125 C 306.601562 24.464844 307.328125 24.953125 308.015625 25.507812 C 308.710938 26.050781 309.414062 26.59375 310.105469 27.160156 C 310.601562 27.585938 311.097656 28.015625 311.59375 28.445312 C 311.445312 28.683594 311.359375 28.964844 311.359375 29.265625 C 311.359375 30.125 312.054688 30.820312 312.914062 30.820312 C 313.769531 30.820312 314.464844 30.125 314.464844 29.265625 C 314.464844 28.40625 313.769531 27.714844 312.914062 27.714844 C 312.636719 27.714844 312.378906 27.785156 312.15625 27.910156 C 311.632812 27.453125 311.109375 27.003906 310.585938 26.554688 C 309.882812 25.976562 309.167969 25.425781 308.460938 24.871094 C 308.285156 24.734375 308.109375 24.59375 307.933594 24.460938 C 307.757812 24.324219 307.570312 24.195312 307.390625 24.066406 C 307.03125 23.808594 306.667969 23.550781 306.308594 23.296875 C 305.949219 23.042969 305.589844 22.789062 305.230469 22.53125 C 304.863281 22.289062 304.496094 22.054688 304.128906 21.820312 C 303.765625 21.585938 303.398438 21.351562 303.035156 21.121094 C 302.671875 20.886719 302.308594 20.652344 301.933594 20.441406 C 301.1875 20.015625 300.449219 19.589844 299.71875 19.167969 C 298.976562 18.757812 298.222656 18.390625 297.480469 18.003906 C 297.109375 17.816406 296.742188 17.625 296.367188 17.445312 C 295.992188 17.273438 295.617188 17.101562 295.242188 16.933594 C 289.265625 14.167969 283.21875 12.480469 277.371094 11.519531 L 277.160156 11.480469 C 276.28125 11.882812 275.414062 12.300781 274.570312 12.714844 C 274.148438 12.925781 273.726562 13.128906 273.3125 13.347656 L 272.082031 14.03125 C 271.265625 14.492188 270.472656 14.941406 269.695312 15.421875 C 268.917969 15.917969 268.15625 16.417969 267.414062 16.921875 C 264.855469 16.878906 262.289062 17.007812 259.738281 17.277344 C 257.441406 17.523438 255.160156 17.910156 252.902344 18.414062 Z M 252.902344 18.414062 " fill-opacity="1" fill-rule="nonzero"/><path fill="#004aad" d="M 309.347656 85.703125 C 308.941406 88.601562 308.257812 91.460938 307.265625 94.214844 C 307.242188 94.214844 307.21875 94.210938 307.195312 94.210938 C 306.335938 94.210938 305.640625 94.90625 305.640625 95.765625 C 305.640625 96.625 306.339844 97.320312 307.195312 97.320312 C 308.054688 97.320312 308.75 96.621094 308.75 95.765625 C 308.75 95.203125 308.453125 94.714844 308.003906 94.441406 C 309.976562 88.925781 310.792969 83.007812 310.460938 77.121094 C 311.078125 76.914062 311.527344 76.332031 311.527344 75.644531 C 311.527344 74.785156 310.832031 74.089844 309.972656 74.089844 C 309.117188 74.089844 308.417969 74.785156 308.417969 75.644531 C 308.417969 76.40625 308.964844 77.035156 309.6875 77.171875 C 309.847656 80.019531 309.738281 82.890625 309.347656 85.703125 Z M 309.347656 85.703125 " fill-opacity="1" fill-rule="nonzero"/><path fill="#004aad" d="M 316.742188 80.65625 L 316.765625 79.816406 C 316.773438 79.539062 316.753906 79.257812 316.75 78.980469 L 316.710938 77.308594 C 316.710938 77.027344 316.675781 76.75 316.65625 76.472656 L 316.59375 75.636719 C 316.535156 74.523438 316.359375 73.421875 316.226562 72.3125 C 316.199219 72.035156 316.144531 71.761719 316.097656 71.488281 L 315.949219 70.664062 C 315.847656 70.117188 315.769531 69.5625 315.628906 69.027344 L 315.253906 67.398438 C 315.199219 67.125 315.117188 66.859375 315.042969 66.589844 L 314.8125 65.789062 C 314.535156 64.707031 314.140625 63.664062 313.796875 62.605469 C 313.613281 62.082031 313.390625 61.570312 313.191406 61.046875 L 312.886719 60.269531 C 312.789062 60.011719 312.664062 59.761719 312.550781 59.507812 L 311.863281 57.984375 C 311.617188 57.484375 311.355469 56.992188 311.105469 56.492188 L 311.039062 56.363281 C 310.304688 56.035156 309.527344 55.753906 308.773438 55.480469 C 308.015625 55.210938 307.285156 54.945312 306.511719 54.734375 C 305.75 54.511719 305.007812 54.296875 304.257812 54.113281 C 303.492188 53.941406 302.742188 53.78125 302.003906 53.636719 C 299.148438 49.78125 295.667969 46.375 291.738281 43.617188 C 291.796875 43.453125 291.832031 43.28125 291.832031 43.09375 C 291.832031 42.234375 291.136719 41.542969 290.277344 41.542969 C 289.417969 41.542969 288.722656 42.238281 288.722656 43.09375 C 288.722656 43.953125 289.421875 44.648438 290.277344 44.648438 C 290.671875 44.648438 291.03125 44.5 291.308594 44.257812 C 299.207031 49.796875 305.238281 58.023438 307.957031 67.246094 C 307.488281 67.515625 307.171875 68.019531 307.171875 68.597656 C 307.171875 69.457031 307.871094 70.152344 308.726562 70.152344 C 309.585938 70.152344 310.28125 69.453125 310.28125 68.597656 C 310.28125 67.738281 309.585938 67.042969 308.726562 67.042969 C 308.71875 67.042969 308.710938 67.046875 308.703125 67.046875 C 307.386719 62.578125 305.296875 58.347656 302.632812 54.519531 C 302.960938 54.589844 303.292969 54.65625 303.621094 54.730469 L 304.589844 54.980469 C 305.238281 55.15625 305.902344 55.335938 306.5625 55.539062 C 307.207031 55.75 307.859375 55.972656 308.519531 56.207031 C 308.847656 56.328125 309.191406 56.441406 309.511719 56.578125 L 310.484375 56.980469 C 311.515625 58.910156 312.347656 60.941406 313.109375 62.988281 L 313.632812 64.542969 L 313.765625 64.929688 C 313.804688 65.0625 313.839844 65.191406 313.878906 65.324219 L 314.324219 66.902344 L 314.4375 67.296875 L 314.527344 67.699219 L 314.898438 69.296875 L 314.992188 69.695312 L 315.0625 70.097656 L 315.203125 70.90625 L 315.347656 71.710938 L 315.421875 72.117188 L 315.472656 72.523438 L 315.679688 74.152344 L 315.730469 74.558594 C 315.746094 74.695312 315.753906 74.832031 315.765625 74.96875 L 315.824219 75.789062 C 316.023438 77.96875 315.996094 80.171875 315.914062 82.359375 C 315.433594 90.957031 312.714844 99.394531 307.996094 106.59375 C 307.851562 106.550781 307.699219 106.527344 307.542969 106.527344 C 306.683594 106.527344 305.988281 107.222656 305.988281 108.078125 C 305.988281 108.9375 306.683594 109.632812 307.542969 109.632812 C 308.402344 109.632812 309.097656 108.9375 309.097656 108.078125 C 309.097656 107.660156 308.929688 107.277344 308.65625 106.996094 C 313.457031 99.667969 316.210938 91.074219 316.691406 82.328125 C 316.71875 81.769531 316.726562 81.210938 316.742188 80.65625 Z M 316.742188 80.65625 " fill-opacity="1" fill-rule="nonzero"/><g clip-path="url(#fa9386f377)"><path fill="#004aad" d="M 238.015625 18.902344 C 238.875 18.902344 239.570312 18.207031 239.570312 17.347656 C 239.570312 17.234375 239.554688 17.121094 239.53125 17.011719 C 241.964844 15.976562 244.214844 15.179688 246.359375 14.515625 C 246.949219 14.339844 247.523438 14.15625 248.097656 14 C 248.675781 13.847656 249.242188 13.695312 249.808594 13.546875 C 250.375 13.398438 250.941406 13.277344 251.503906 13.144531 C 251.785156 13.082031 252.066406 13.019531 252.347656 12.953125 L 253.199219 12.789062 C 256.3125 12.171875 259.496094 11.738281 263.144531 11.542969 C 263.335938 12.183594 263.929688 12.652344 264.632812 12.652344 C 265.492188 12.652344 266.1875 11.953125 266.1875 11.097656 C 266.1875 10.242188 265.496094 9.542969 264.636719 9.542969 C 263.890625 9.542969 263.265625 10.070312 263.117188 10.769531 C 258.71875 11.015625 254.992188 11.558594 251.246094 12.414062 C 250.753906 12.527344 250.257812 12.640625 249.757812 12.761719 C 249.261719 12.894531 248.761719 13.027344 248.261719 13.160156 C 248.007812 13.226562 247.757812 13.296875 247.5 13.367188 C 247.25 13.441406 246.996094 13.519531 246.742188 13.59375 C 246.230469 13.75 245.714844 13.902344 245.191406 14.070312 C 243.289062 14.691406 241.304688 15.421875 239.179688 16.324219 C 238.894531 16.003906 238.480469 15.796875 238.015625 15.796875 C 237.15625 15.796875 236.460938 16.492188 236.460938 17.351562 C 236.460938 18.207031 237.15625 18.902344 238.015625 18.902344 Z M 238.015625 18.902344 " fill-opacity="1" fill-rule="nonzero"/></g><path fill="#004aad" d="M 289.246094 29.980469 C 290.105469 29.980469 290.796875 29.28125 290.796875 28.425781 C 290.796875 27.566406 290.101562 26.871094 289.246094 26.871094 C 288.773438 26.871094 288.351562 27.085938 288.0625 27.417969 C 288.042969 27.410156 288.023438 27.402344 288.003906 27.394531 L 287.082031 27.023438 L 286.160156 26.65625 C 285.851562 26.535156 285.535156 26.4375 285.222656 26.324219 L 283.339844 25.683594 L 281.429688 25.132812 C 281.109375 25.046875 280.796875 24.9375 280.472656 24.867188 L 279.507812 24.640625 L 278.539062 24.410156 L 278.054688 24.296875 C 277.894531 24.257812 277.730469 24.234375 277.566406 24.203125 L 275.609375 23.847656 C 275.445312 23.820312 275.285156 23.785156 275.121094 23.761719 L 274.628906 23.695312 L 273.644531 23.566406 L 272.445312 24.210938 C 272.050781 24.429688 271.660156 24.675781 271.277344 24.90625 L 270.132812 25.613281 C 269.761719 25.851562 269.390625 26.074219 269.023438 26.335938 C 268.292969 26.84375 267.582031 27.355469 266.890625 27.863281 C 266.546875 28.109375 266.207031 28.390625 265.871094 28.65625 L 264.882812 29.464844 C 262.195312 29.554688 259.519531 29.867188 256.886719 30.378906 C 254.527344 30.84375 252.191406 31.464844 249.925781 32.265625 C 249.640625 31.933594 249.214844 31.71875 248.742188 31.71875 C 247.882812 31.71875 247.1875 32.417969 247.1875 33.273438 C 247.1875 34.132812 247.886719 34.828125 248.742188 34.828125 C 249.601562 34.828125 250.296875 34.128906 250.296875 33.273438 C 250.296875 33.167969 250.285156 33.066406 250.265625 32.96875 C 250.300781 32.957031 250.332031 32.945312 250.367188 32.933594 L 251.320312 32.605469 L 252.285156 32.3125 C 252.605469 32.21875 252.925781 32.113281 253.25 32.03125 C 253.902344 31.863281 254.546875 31.667969 255.203125 31.53125 L 256.183594 31.304688 L 257.171875 31.109375 C 259.8125 30.601562 262.492188 30.296875 265.1875 30.234375 C 266.472656 29.128906 267.835938 28.136719 269.285156 27.113281 C 270.007812 26.640625 270.75 26.167969 271.515625 25.699219 L 272.089844 25.347656 C 272.285156 25.230469 272.476562 25.128906 272.671875 25.019531 L 273.859375 24.371094 C 275.132812 24.507812 276.386719 24.78125 277.648438 25 C 278.273438 25.132812 278.894531 25.289062 279.519531 25.433594 L 280.453125 25.652344 C 280.761719 25.734375 281.070312 25.828125 281.378906 25.914062 L 283.222656 26.449219 L 285.039062 27.070312 C 285.339844 27.179688 285.648438 27.269531 285.941406 27.394531 L 286.832031 27.75 L 287.722656 28.101562 C 287.699219 28.203125 287.6875 28.308594 287.6875 28.414062 C 287.691406 29.28125 288.386719 29.980469 289.246094 29.980469 Z M 289.246094 29.980469 " fill-opacity="1" fill-rule="nonzero"/><path fill="#004aad" d="M 320.039062 68.433594 C 320.039062 69.292969 320.734375 69.988281 321.59375 69.988281 C 322.449219 69.988281 323.148438 69.292969 323.148438 68.433594 C 323.148438 67.597656 322.480469 66.914062 321.648438 66.882812 C 320.257812 60.898438 317.859375 55.160156 314.632812 49.941406 C 314.191406 49.257812 313.761719 48.566406 313.308594 47.894531 L 311.890625 45.90625 L 310.382812 43.984375 C 310.136719 43.660156 309.855469 43.367188 309.59375 43.054688 L 308.792969 42.132812 C 306.625 39.710938 304.25 37.46875 301.703125 35.445312 C 300.085938 31.515625 297.921875 27.621094 295.199219 23.898438 L 295.117188 23.789062 L 294.21875 23.328125 L 293.773438 23.097656 L 293.3125 22.890625 L 291.476562 22.058594 L 291.015625 21.851562 L 290.546875 21.664062 L 288.671875 20.921875 L 288.203125 20.738281 C 288.046875 20.679688 287.886719 20.628906 287.726562 20.574219 C 286.453125 20.140625 285.1875 19.683594 283.886719 19.339844 L 282.914062 19.066406 C 282.589844 18.976562 282.269531 18.875 281.941406 18.804688 L 280.667969 18.507812 C 280.65625 17.660156 279.964844 16.972656 279.113281 16.972656 C 278.253906 16.972656 277.5625 17.671875 277.5625 18.527344 C 277.5625 19.386719 278.257812 20.082031 279.113281 20.082031 C 279.710938 20.082031 280.222656 19.746094 280.488281 19.257812 C 285.339844 20.390625 290.074219 22.0625 294.503906 24.34375 C 297.234375 28.0625 299.402344 31.960938 301.015625 35.886719 L 301.890625 36.578125 C 302.183594 36.808594 302.457031 37.058594 302.742188 37.300781 L 303.582031 38.027344 L 304.007812 38.394531 C 304.144531 38.519531 304.277344 38.648438 304.410156 38.777344 L 306.023438 40.316406 L 307.566406 41.929688 C 309.578125 44.121094 311.417969 46.46875 313.070312 48.941406 C 310.132812 47.882812 307.242188 47.078125 304.347656 46.613281 C 300.457031 42.175781 295.796875 38.40625 290.621094 35.574219 C 285.609375 32.84375 280.136719 30.984375 274.503906 30.074219 C 274.402344 29.320312 273.753906 28.734375 272.96875 28.734375 C 272.109375 28.734375 271.414062 29.433594 271.414062 30.289062 C 271.414062 31.148438 272.109375 31.84375 272.96875 31.84375 C 273.628906 31.84375 274.195312 31.429688 274.417969 30.84375 C 279.976562 31.746094 285.371094 33.585938 290.308594 36.289062 C 295.425781 39.09375 300.027344 42.832031 303.855469 47.230469 L 303.949219 47.339844 C 307.199219 47.882812 310.535156 48.785156 313.816406 50.101562 C 317.078125 55.3125 319.496094 61.054688 320.886719 67.046875 C 320.386719 67.304688 320.039062 67.828125 320.039062 68.433594 Z M 320.039062 68.433594 " fill-opacity="1" fill-rule="nonzero"/><g clip-path="url(#8f71345620)"><path fill="#004aad" d="M 335.390625 84.113281 C 335.878906 76.847656 335.164062 69.507812 333.375 62.414062 C 332.417969 58.757812 331.167969 55.179688 329.640625 51.726562 L 329.054688 50.433594 L 328.761719 49.789062 L 328.441406 49.15625 C 328.011719 48.316406 327.589844 47.472656 327.144531 46.640625 L 325.734375 44.183594 L 325.554688 43.878906 L 325.367188 43.578125 L 324.984375 42.984375 L 324.769531 42.648438 C 325.074219 42.363281 325.265625 41.960938 325.265625 41.511719 C 325.265625 40.652344 324.570312 39.957031 323.714844 39.957031 C 322.855469 39.957031 322.160156 40.652344 322.160156 41.511719 C 322.160156 42.371094 322.855469 43.066406 323.714844 43.066406 C 323.839844 43.066406 323.96875 43.046875 324.085938 43.019531 L 324.757812 44.066406 C 325.140625 44.6875 325.496094 45.328125 325.863281 45.960938 L 326.410156 46.914062 C 326.59375 47.226562 326.75 47.558594 326.921875 47.882812 L 327.921875 49.835938 C 329.171875 52.480469 330.332031 55.175781 331.234375 57.964844 C 330.648438 57.644531 330.0625 57.335938 329.480469 57.035156 L 329.042969 56.8125 L 328.59375 56.59375 L 327.699219 56.175781 C 327.105469 55.898438 326.511719 55.632812 325.925781 55.378906 L 325.042969 55 C 324.746094 54.882812 324.441406 54.765625 324.140625 54.648438 C 320.554688 46.457031 315.238281 39.027344 308.582031 33.070312 C 308.6875 32.859375 308.746094 32.625 308.746094 32.375 C 308.746094 31.515625 308.050781 30.824219 307.191406 30.824219 C 306.332031 30.824219 305.636719 31.519531 305.636719 32.375 C 305.636719 33.234375 306.335938 33.929688 307.191406 33.929688 C 307.523438 33.929688 307.832031 33.824219 308.085938 33.644531 L 308.113281 33.671875 C 308.332031 33.855469 308.53125 34.058594 308.742188 34.257812 L 309.988281 35.441406 C 310.410156 35.832031 310.796875 36.253906 311.195312 36.667969 L 312.378906 37.914062 C 312.761719 38.339844 313.136719 38.777344 313.511719 39.207031 L 314.074219 39.859375 C 314.261719 40.074219 314.449219 40.292969 314.625 40.519531 L 316.21875 42.546875 L 316.71875 43.246094 C 319.414062 46.960938 321.703125 50.964844 323.527344 55.179688 L 323.628906 55.402344 C 324.96875 55.9375 326.308594 56.527344 327.671875 57.160156 C 329 57.808594 330.324219 58.515625 331.671875 59.265625 C 332.957031 63.386719 333.847656 67.628906 334.328125 71.910156 C 334.78125 75.945312 334.871094 80 334.613281 84.046875 C 333.882812 84.167969 333.324219 84.804688 333.324219 85.574219 C 333.324219 86.433594 334.019531 87.128906 334.875 87.128906 C 335.734375 87.128906 336.429688 86.433594 336.429688 85.574219 C 336.429688 84.898438 335.996094 84.324219 335.390625 84.113281 Z M 335.390625 84.113281 " fill-opacity="1" fill-rule="nonzero"/></g><g clip-path="url(#21cfde3f61)"><path fill="#004aad" d="M 330.335938 103.671875 C 329.476562 103.671875 328.785156 104.367188 328.785156 105.222656 C 328.785156 105.695312 328.992188 106.117188 329.324219 106.402344 C 325.835938 114.628906 320.675781 122.109375 314.3125 128.34375 C 314.082031 128.210938 313.816406 128.132812 313.53125 128.132812 C 312.671875 128.132812 311.976562 128.828125 311.976562 129.683594 C 311.976562 130.542969 312.675781 131.238281 313.53125 131.238281 C 314.390625 131.238281 315.085938 130.542969 315.085938 129.683594 C 315.085938 129.394531 315.003906 129.121094 314.863281 128.886719 C 321.28125 122.59375 326.492188 115.046875 330.015625 106.746094 C 330.117188 106.769531 330.226562 106.777344 330.335938 106.777344 C 331.195312 106.777344 331.890625 106.082031 331.890625 105.222656 C 331.890625 104.367188 331.195312 103.671875 330.335938 103.671875 Z M 330.335938 103.671875 " fill-opacity="1" fill-rule="nonzero"/></g><g clip-path="url(#39374d46e8)"><path fill="#004aad" d="M 231.699219 116.734375 C 231.984375 116.734375 232.253906 116.65625 232.480469 116.523438 C 236.613281 120.332031 241.378906 123.449219 246.523438 125.6875 C 249.207031 126.855469 251.988281 127.789062 254.835938 128.472656 C 255.550781 128.625 256.261719 128.800781 256.980469 128.941406 L 259.144531 129.3125 L 261.324219 129.582031 L 261.597656 129.613281 L 261.871094 129.636719 L 262.417969 129.675781 L 262.644531 129.691406 C 262.785156 130.402344 263.414062 130.941406 264.167969 130.941406 C 265.027344 130.941406 265.722656 130.242188 265.722656 129.386719 C 265.722656 128.527344 265.023438 127.832031 264.167969 127.832031 C 263.472656 127.832031 262.882812 128.289062 262.683594 128.917969 L 262.484375 128.902344 L 261.941406 128.867188 L 261.671875 128.847656 L 261.402344 128.8125 L 259.257812 128.550781 L 257.125 128.183594 C 256.421875 128.046875 255.722656 127.871094 255.015625 127.722656 C 252.214844 127.046875 249.476562 126.128906 246.835938 124.980469 C 241.777344 122.777344 237.097656 119.71875 233.035156 115.980469 C 233.175781 115.746094 233.257812 115.472656 233.257812 115.183594 C 233.257812 114.324219 232.558594 113.628906 231.703125 113.628906 C 230.84375 113.628906 230.148438 114.324219 230.148438 115.183594 C 230.148438 116.039062 230.84375 116.734375 231.699219 116.734375 Z M 231.699219 116.734375 " fill-opacity="1" fill-rule="nonzero"/></g><g clip-path="url(#d63235a342)"><path fill="#004aad" d="M 302.222656 115.835938 C 303.082031 115.835938 303.777344 115.140625 303.777344 114.28125 C 303.777344 113.425781 303.078125 112.730469 302.222656 112.730469 C 301.363281 112.730469 300.667969 113.425781 300.667969 114.28125 C 300.667969 114.605469 300.769531 114.90625 300.9375 115.15625 C 297.136719 118.832031 292.746094 121.882812 288.007812 124.199219 C 285.539062 125.375 282.980469 126.351562 280.359375 127.113281 C 279.050781 127.515625 277.714844 127.804688 276.382812 128.101562 L 274.363281 128.460938 L 274.113281 128.507812 L 273.859375 128.539062 L 273.351562 128.605469 L 272.332031 128.734375 C 269.242188 126.996094 266.472656 124.984375 264.074219 122.777344 L 262.421875 122.65625 C 261.875 122.601562 261.328125 122.519531 260.785156 122.457031 C 260.234375 122.40625 259.695312 122.296875 259.152344 122.203125 C 258.609375 122.109375 258.066406 122.03125 257.535156 121.894531 C 255.378906 121.457031 253.273438 120.804688 251.21875 120.027344 C 247.3125 118.5625 243.652344 116.464844 240.324219 113.9375 C 240.503906 113.683594 240.613281 113.371094 240.613281 113.035156 C 240.613281 112.175781 239.917969 111.480469 239.058594 111.480469 C 238.199219 111.480469 237.503906 112.175781 237.503906 113.035156 C 237.503906 113.890625 238.203125 114.585938 239.058594 114.585938 C 239.292969 114.585938 239.515625 114.535156 239.710938 114.441406 C 241.34375 115.691406 243.050781 116.832031 244.828125 117.859375 L 246.285156 118.667969 L 247.777344 119.402344 C 248.023438 119.53125 248.277344 119.640625 248.535156 119.75 L 249.296875 120.082031 C 249.550781 120.191406 249.800781 120.308594 250.0625 120.414062 L 250.839844 120.707031 C 251.867188 121.128906 252.929688 121.449219 253.984375 121.796875 L 255.585938 122.234375 C 255.722656 122.273438 255.851562 122.316406 255.988281 122.34375 L 256.394531 122.433594 L 257.210938 122.613281 L 258.019531 122.792969 L 258.839844 122.933594 L 259.660156 123.078125 L 260.074219 123.152344 L 260.488281 123.203125 L 262.144531 123.410156 L 263.808594 123.535156 C 266.238281 125.757812 269.042969 127.785156 272.167969 129.535156 L 274.25 129.269531 L 276.316406 128.898438 C 276.660156 128.847656 277 128.761719 277.339844 128.683594 L 278.363281 128.449219 L 278.871094 128.328125 L 279.128906 128.269531 L 279.382812 128.199219 L 280.390625 127.910156 C 283.078125 127.140625 285.707031 126.160156 288.230469 124.953125 C 293.109375 122.585938 297.628906 119.453125 301.523438 115.667969 C 301.730469 115.773438 301.96875 115.835938 302.222656 115.835938 Z M 302.222656 115.835938 " fill-opacity="1" fill-rule="nonzero"/></g><g clip-path="url(#8d5d3edd29)"><path fill="#004aad" d="M 304.988281 102.914062 C 304.988281 102.054688 304.292969 101.363281 303.433594 101.363281 C 302.578125 101.363281 301.882812 102.058594 301.882812 102.914062 C 301.882812 103.320312 302.039062 103.6875 302.289062 103.960938 C 299.445312 108.125 295.867188 111.792969 291.777344 114.738281 C 289.660156 116.261719 287.410156 117.597656 285.058594 118.714844 C 284.460938 118.976562 283.875 119.257812 283.277344 119.515625 C 282.671875 119.75 282.066406 119.988281 281.464844 120.230469 L 279.617188 120.855469 C 279.464844 120.914062 279.304688 120.953125 279.148438 121 L 278.679688 121.132812 L 278.226562 121.261719 C 277.980469 120.730469 277.441406 120.359375 276.816406 120.359375 C 275.957031 120.359375 275.261719 121.058594 275.261719 121.914062 C 275.261719 122.773438 275.960938 123.46875 276.816406 123.46875 C 277.636719 123.46875 278.308594 122.832031 278.367188 122.023438 L 278.894531 121.875 L 279.375 121.738281 C 279.535156 121.695312 279.695312 121.652344 279.847656 121.59375 L 281.730469 120.957031 C 282.34375 120.710938 282.960938 120.46875 283.578125 120.230469 C 284.1875 119.96875 284.785156 119.683594 285.390625 119.417969 C 287.785156 118.277344 290.078125 116.921875 292.230469 115.367188 C 296.402344 112.367188 300.042969 108.628906 302.941406 104.386719 C 303.097656 104.4375 303.261719 104.46875 303.4375 104.46875 C 304.292969 104.472656 304.988281 103.773438 304.988281 102.914062 Z M 304.988281 102.914062 " fill-opacity="1" fill-rule="nonzero"/></g><path fill="#004aad" d="M 236.824219 33.695312 C 237.683594 33.695312 238.378906 32.996094 238.378906 32.140625 C 238.378906 31.972656 238.351562 31.8125 238.304688 31.660156 C 244.324219 28.085938 251.027344 25.667969 257.945312 24.578125 C 258.210938 25.050781 258.714844 25.367188 259.296875 25.367188 C 260.15625 25.367188 260.851562 24.671875 260.851562 23.8125 C 260.851562 22.957031 260.15625 22.261719 259.296875 22.261719 C 258.441406 22.261719 257.742188 22.957031 257.742188 23.8125 C 257.742188 23.820312 257.742188 23.824219 257.742188 23.828125 C 250.746094 24.941406 243.972656 27.394531 237.882812 31.007812 C 237.605469 30.746094 237.234375 30.585938 236.824219 30.585938 C 235.964844 30.585938 235.269531 31.28125 235.269531 32.140625 C 235.269531 32.996094 235.964844 33.695312 236.824219 33.695312 Z M 236.824219 33.695312 " fill-opacity="1" fill-rule="nonzero"/><path fill="#004aad" d="M 245.605469 39.984375 C 244.75 39.984375 244.054688 40.683594 244.054688 41.539062 C 244.054688 42.398438 244.75 43.09375 245.605469 43.09375 C 246.464844 43.09375 247.160156 42.394531 247.160156 41.539062 C 247.160156 41.390625 247.140625 41.25 247.101562 41.113281 C 252.308594 38.464844 258.039062 36.921875 263.886719 36.566406 L 265.042969 36.503906 L 266.203125 36.488281 C 266.589844 36.46875 266.972656 36.496094 267.359375 36.503906 L 268.519531 36.53125 L 268.8125 36.539062 L 269.097656 36.5625 L 269.675781 36.609375 L 270.828125 36.691406 C 271.019531 36.699219 271.210938 36.734375 271.402344 36.753906 L 271.972656 36.828125 L 273.121094 36.972656 C 275.765625 37.371094 278.367188 38.027344 280.886719 38.917969 C 280.871094 39 280.863281 39.085938 280.863281 39.175781 C 280.863281 40.035156 281.558594 40.726562 282.417969 40.726562 C 283.277344 40.726562 283.96875 40.03125 283.96875 39.175781 C 283.96875 38.316406 283.273438 37.621094 282.417969 37.621094 C 281.925781 37.621094 281.488281 37.847656 281.203125 38.207031 C 278.617188 37.292969 275.949219 36.617188 273.234375 36.207031 L 272.070312 36.0625 L 271.484375 35.988281 C 271.292969 35.960938 271.097656 35.929688 270.902344 35.921875 L 269.726562 35.835938 L 268.847656 35.765625 L 268.554688 35.757812 L 267.375 35.730469 C 266.984375 35.722656 266.589844 35.699219 266.195312 35.714844 L 265.015625 35.734375 L 263.839844 35.796875 C 257.875 36.160156 252.023438 37.738281 246.710938 40.449219 C 246.429688 40.160156 246.039062 39.984375 245.605469 39.984375 Z M 245.605469 39.984375 " fill-opacity="1" fill-rule="nonzero"/><g transform="matrix(1, 0, 0, 1, 227, -0.000000000000007527)"><g clip-path="url(#2d89ac0988)"><g fill="#020166" fill-opacity="1"><g transform="translate(0.365639, 120.973852)"><g><path d="M 76.195312 0 L 76.195312 -59.132812 L 27.902344 -59.132812 L 27.902344 -74.3125 L 76.195312 -74.3125 L 76.195312 -96.433594 L 3.757812 -96.433594 L 3.757812 -37.878906 L 52.046875 -37.878906 L 52.046875 -21.976562 L 3.757812 -21.976562 L 3.757812 0 Z M 76.195312 0 "/></g></g></g></g></g><g transform="matrix(1, 0, 0, 1, 44, 125)"><g clip-path="url(#c44eb442d5)"><g fill="#020166" fill-opacity="1"><g transform="translate(1.039615, 15.02682)"><g><path d="M 9.34375 -1.5625 L 9.34375 0 L 1.96875 0 L 1.96875 -10.484375 L 3.59375 -10.484375 L 3.59375 -1.5625 Z M 9.34375 -1.5625 "/></g></g></g><g fill="#020166" fill-opacity="1"><g transform="translate(11.616109, 15.02682)"><g><path d="M 9.265625 -1.03125 L 9.25 -1.03125 C 9 -0.832031 8.6875 -0.640625 8.3125 -0.453125 C 7.9375 -0.265625 7.523438 -0.113281 7.078125 0 C 6.628906 0.101562 6.171875 0.15625 5.703125 0.15625 C 4.796875 0.15625 3.992188 -0.015625 3.296875 -0.359375 C 2.597656 -0.710938 2.050781 -1.1875 1.65625 -1.78125 C 1.269531 -2.382812 1.078125 -3.070312 1.078125 -3.84375 C 1.078125 -4.726562 1.28125 -5.476562 1.6875 -6.09375 C 2.101562 -6.71875 2.648438 -7.195312 3.328125 -7.53125 C 4.015625 -7.863281 4.757812 -8.03125 5.5625 -8.03125 C 6.3125 -8.03125 6.988281 -7.867188 7.59375 -7.546875 C 8.207031 -7.222656 8.695312 -6.773438 9.0625 -6.203125 C 9.425781 -5.640625 9.609375 -4.976562 9.609375 -4.21875 L 9.59375 -3.5 L 2.640625 -3.5 C 2.753906 -2.8125 3.101562 -2.265625 3.6875 -1.859375 C 4.28125 -1.460938 5.019531 -1.265625 5.90625 -1.265625 C 6.5625 -1.265625 7.09375 -1.367188 7.5 -1.578125 C 7.914062 -1.785156 8.257812 -1.984375 8.53125 -2.171875 Z M 5.5625 -6.609375 C 4.851562 -6.609375 4.234375 -6.46875 3.703125 -6.1875 C 3.179688 -5.90625 2.835938 -5.421875 2.671875 -4.734375 L 8.03125 -4.734375 L 8.03125 -4.890625 C 8 -5.234375 7.863281 -5.535156 7.625 -5.796875 C 7.382812 -6.054688 7.082031 -6.253906 6.71875 -6.390625 C 6.351562 -6.535156 5.96875 -6.609375 5.5625 -6.609375 Z M 5.5625 -6.609375 "/></g></g></g><g fill="#020166" fill-opacity="1"><g transform="translate(22.446949, 15.02682)"><g><path d="M 9.734375 -7.859375 L 9.734375 0 L 8.1875 0 L 8.1875 -1.28125 C 8.007812 -1.039062 7.765625 -0.8125 7.453125 -0.59375 C 7.140625 -0.375 6.78125 -0.191406 6.375 -0.046875 C 5.976562 0.0859375 5.546875 0.15625 5.078125 0.15625 C 4.296875 0.15625 3.601562 -0.015625 3 -0.359375 C 2.394531 -0.710938 1.921875 -1.195312 1.578125 -1.8125 C 1.234375 -2.4375 1.0625 -3.148438 1.0625 -3.953125 C 1.0625 -4.753906 1.238281 -5.457031 1.59375 -6.0625 C 1.957031 -6.664062 2.457031 -7.140625 3.09375 -7.484375 C 3.726562 -7.835938 4.453125 -8.015625 5.265625 -8.015625 C 5.910156 -8.015625 6.484375 -7.890625 6.984375 -7.640625 C 7.492188 -7.398438 7.894531 -7.113281 8.1875 -6.78125 L 8.1875 -7.859375 Z M 5.4375 -1.265625 C 5.976562 -1.265625 6.460938 -1.378906 6.890625 -1.609375 C 7.316406 -1.847656 7.648438 -2.164062 7.890625 -2.5625 C 8.128906 -2.96875 8.25 -3.429688 8.25 -3.953125 C 8.25 -4.453125 8.128906 -4.898438 7.890625 -5.296875 C 7.648438 -5.691406 7.316406 -6.003906 6.890625 -6.234375 C 6.460938 -6.472656 5.976562 -6.59375 5.4375 -6.59375 C 4.882812 -6.59375 4.394531 -6.472656 3.96875 -6.234375 C 3.550781 -6.003906 3.222656 -5.691406 2.984375 -5.296875 C 2.753906 -4.898438 2.640625 -4.453125 2.640625 -3.953125 C 2.640625 -3.429688 2.753906 -2.96875 2.984375 -2.5625 C 3.222656 -2.164062 3.550781 -1.847656 3.96875 -1.609375 C 4.394531 -1.378906 4.882812 -1.265625 5.4375 -1.265625 Z M 5.4375 -1.265625 "/></g></g></g><g fill="#020166" fill-opacity="1"><g transform="translate(34.010818, 15.02682)"><g><path d="M 7.078125 -6.109375 C 6.929688 -6.191406 6.75 -6.257812 6.53125 -6.3125 C 6.320312 -6.363281 6.109375 -6.390625 5.890625 -6.390625 C 5.460938 -6.390625 5.066406 -6.285156 4.703125 -6.078125 C 4.347656 -5.878906 4.0625 -5.613281 3.84375 -5.28125 C 3.625 -4.945312 3.515625 -4.570312 3.515625 -4.15625 L 3.515625 0 L 1.953125 0 L 1.953125 -7.859375 L 3.515625 -7.859375 L 3.515625 -6.28125 C 3.796875 -6.78125 4.179688 -7.191406 4.671875 -7.515625 C 5.171875 -7.847656 5.6875 -8.015625 6.21875 -8.015625 C 6.46875 -8.015625 6.707031 -7.988281 6.9375 -7.9375 C 7.175781 -7.894531 7.359375 -7.832031 7.484375 -7.75 Z M 7.078125 -6.109375 "/></g></g></g><g fill="#020166" fill-opacity="1"><g transform="translate(42.298506, 15.02682)"><g><path d="M 6.375 -8.015625 C 7.132812 -8.015625 7.738281 -7.863281 8.1875 -7.5625 C 8.644531 -7.269531 8.972656 -6.875 9.171875 -6.375 C 9.378906 -5.882812 9.484375 -5.335938 9.484375 -4.734375 L 9.484375 0 L 7.953125 0 L 7.953125 -4.5625 C 7.953125 -5.164062 7.78125 -5.660156 7.4375 -6.046875 C 7.101562 -6.429688 6.597656 -6.613281 5.921875 -6.59375 C 5.453125 -6.59375 5.035156 -6.488281 4.671875 -6.28125 C 4.304688 -6.082031 4.019531 -5.820312 3.8125 -5.5 C 3.601562 -5.1875 3.5 -4.859375 3.5 -4.515625 L 3.5 0 L 1.953125 0 L 1.953125 -7.859375 L 3.5 -7.859375 L 3.5 -6.546875 C 3.800781 -6.929688 4.203125 -7.269531 4.703125 -7.5625 C 5.203125 -7.863281 5.757812 -8.015625 6.375 -8.015625 Z M 6.375 -8.015625 "/></g></g></g><g fill="#020166" fill-opacity="1"><g transform="translate(53.712778, 15.02682)"><g><path d="M 2.875 -9.5625 C 2.53125 -9.5625 2.269531 -9.648438 2.09375 -9.828125 C 1.925781 -10.003906 1.84375 -10.238281 1.84375 -10.53125 C 1.84375 -10.78125 1.925781 -11.003906 2.09375 -11.203125 C 2.269531 -11.398438 2.53125 -11.5 2.875 -11.5 C 3.226562 -11.5 3.488281 -11.410156 3.65625 -11.234375 C 3.820312 -11.054688 3.90625 -10.820312 3.90625 -10.53125 C 3.90625 -10.28125 3.820312 -10.054688 3.65625 -9.859375 C 3.488281 -9.660156 3.226562 -9.5625 2.875 -9.5625 Z M 3.65625 0 L 2.109375 0 L 2.109375 -7.859375 L 3.65625 -7.859375 Z M 3.65625 0 "/></g></g></g><g fill="#020166" fill-opacity="1"><g transform="translate(59.427396, 15.02682)"><g><path d="M 6.375 -8.015625 C 7.132812 -8.015625 7.738281 -7.863281 8.1875 -7.5625 C 8.644531 -7.269531 8.972656 -6.875 9.171875 -6.375 C 9.378906 -5.882812 9.484375 -5.335938 9.484375 -4.734375 L 9.484375 0 L 7.953125 0 L 7.953125 -4.5625 C 7.953125 -5.164062 7.78125 -5.660156 7.4375 -6.046875 C 7.101562 -6.429688 6.597656 -6.613281 5.921875 -6.59375 C 5.453125 -6.59375 5.035156 -6.488281 4.671875 -6.28125 C 4.304688 -6.082031 4.019531 -5.820312 3.8125 -5.5 C 3.601562 -5.1875 3.5 -4.859375 3.5 -4.515625 L 3.5 0 L 1.953125 0 L 1.953125 -7.859375 L 3.5 -7.859375 L 3.5 -6.546875 C 3.800781 -6.929688 4.203125 -7.269531 4.703125 -7.5625 C 5.203125 -7.863281 5.757812 -8.015625 6.375 -8.015625 Z M 6.375 -8.015625 "/></g></g></g><g fill="#020166" fill-opacity="1"><g transform="translate(70.841669, 15.02682)"><g><path d="M 2.953125 1.265625 C 3.253906 1.472656 3.648438 1.65625 4.140625 1.8125 C 4.628906 1.976562 5.164062 2.0625 5.75 2.0625 C 6.570312 2.0625 7.222656 1.84375 7.703125 1.40625 C 8.191406 0.96875 8.4375 0.320312 8.4375 -0.53125 L 8.4375 -1.296875 C 8.28125 -1.054688 8.046875 -0.820312 7.734375 -0.59375 C 7.421875 -0.375 7.050781 -0.191406 6.625 -0.046875 C 6.207031 0.0859375 5.765625 0.15625 5.296875 0.15625 C 4.492188 0.15625 3.78125 -0.015625 3.15625 -0.359375 C 2.53125 -0.710938 2.035156 -1.195312 1.671875 -1.8125 C 1.316406 -2.4375 1.140625 -3.144531 1.140625 -3.9375 C 1.140625 -4.738281 1.320312 -5.441406 1.6875 -6.046875 C 2.0625 -6.660156 2.5625 -7.140625 3.1875 -7.484375 C 3.820312 -7.835938 4.550781 -8.015625 5.375 -8.015625 C 6.0625 -8.015625 6.675781 -7.878906 7.21875 -7.609375 C 7.757812 -7.347656 8.164062 -7.0625 8.4375 -6.75 L 8.4375 -7.859375 L 9.984375 -7.859375 L 9.984375 -0.71875 C 9.984375 0.257812 9.78125 1.050781 9.375 1.65625 C 8.976562 2.269531 8.457031 2.71875 7.8125 3 C 7.175781 3.289062 6.488281 3.4375 5.75 3.4375 C 5.039062 3.4375 4.390625 3.347656 3.796875 3.171875 C 3.210938 2.992188 2.742188 2.769531 2.390625 2.5 Z M 5.640625 -6.609375 C 5.078125 -6.609375 4.570312 -6.488281 4.125 -6.25 C 3.675781 -6.019531 3.328125 -5.703125 3.078125 -5.296875 C 2.828125 -4.898438 2.703125 -4.445312 2.703125 -3.9375 C 2.703125 -3.425781 2.828125 -2.96875 3.078125 -2.5625 C 3.328125 -2.164062 3.675781 -1.847656 4.125 -1.609375 C 4.570312 -1.378906 5.078125 -1.265625 5.640625 -1.265625 C 6.203125 -1.265625 6.695312 -1.378906 7.125 -1.609375 C 7.550781 -1.835938 7.882812 -2.15625 8.125 -2.5625 C 8.375 -2.96875 8.5 -3.425781 8.5 -3.9375 C 8.5 -4.457031 8.375 -4.914062 8.125 -5.3125 C 7.882812 -5.707031 7.550781 -6.019531 7.125 -6.25 C 6.695312 -6.488281 6.203125 -6.609375 5.640625 -6.609375 Z M 5.640625 -6.609375 "/></g></g></g><g fill="#020166" fill-opacity="1"><g transform="translate(82.659854, 15.02682)"><g/></g></g><g fill="#020166" fill-opacity="1"><g transform="translate(88.075275, 15.02682)"><g><path d="M 3.5625 -10.484375 L 7.40625 -4.875 L 11.296875 -10.484375 L 12.828125 -10.484375 L 12.828125 0 L 11.21875 0 L 11.21875 -4.359375 C 11.21875 -4.992188 11.226562 -5.597656 11.25 -6.171875 C 11.269531 -6.742188 11.3125 -7.316406 11.375 -7.890625 L 7.875 -3.015625 L 6.890625 -3.015625 L 3.421875 -7.875 C 3.484375 -7.300781 3.523438 -6.726562 3.546875 -6.15625 C 3.578125 -5.59375 3.59375 -4.992188 3.59375 -4.359375 L 3.59375 0 L 1.96875 0 L 1.96875 -10.484375 Z M 3.5625 -10.484375 "/></g></g></g><g fill="#020166" fill-opacity="1"><g transform="translate(102.870443, 15.02682)"><g><path d="M 9.734375 -7.859375 L 9.734375 0 L 8.1875 0 L 8.1875 -1.28125 C 8.007812 -1.039062 7.765625 -0.8125 7.453125 -0.59375 C 7.140625 -0.375 6.78125 -0.191406 6.375 -0.046875 C 5.976562 0.0859375 5.546875 0.15625 5.078125 0.15625 C 4.296875 0.15625 3.601562 -0.015625 3 -0.359375 C 2.394531 -0.710938 1.921875 -1.195312 1.578125 -1.8125 C 1.234375 -2.4375 1.0625 -3.148438 1.0625 -3.953125 C 1.0625 -4.753906 1.238281 -5.457031 1.59375 -6.0625 C 1.957031 -6.664062 2.457031 -7.140625 3.09375 -7.484375 C 3.726562 -7.835938 4.453125 -8.015625 5.265625 -8.015625 C 5.910156 -8.015625 6.484375 -7.890625 6.984375 -7.640625 C 7.492188 -7.398438 7.894531 -7.113281 8.1875 -6.78125 L 8.1875 -7.859375 Z M 5.4375 -1.265625 C 5.976562 -1.265625 6.460938 -1.378906 6.890625 -1.609375 C 7.316406 -1.847656 7.648438 -2.164062 7.890625 -2.5625 C 8.128906 -2.96875 8.25 -3.429688 8.25 -3.953125 C 8.25 -4.453125 8.128906 -4.898438 7.890625 -5.296875 C 7.648438 -5.691406 7.316406 -6.003906 6.890625 -6.234375 C 6.460938 -6.472656 5.976562 -6.59375 5.4375 -6.59375 C 4.882812 -6.59375 4.394531 -6.472656 3.96875 -6.234375 C 3.550781 -6.003906 3.222656 -5.691406 2.984375 -5.296875 C 2.753906 -4.898438 2.640625 -4.453125 2.640625 -3.953125 C 2.640625 -3.429688 2.753906 -2.96875 2.984375 -2.5625 C 3.222656 -2.164062 3.550781 -1.847656 3.96875 -1.609375 C 4.394531 -1.378906 4.882812 -1.265625 5.4375 -1.265625 Z M 5.4375 -1.265625 "/></g></g></g><g fill="#020166" fill-opacity="1"><g transform="translate(114.434311, 15.02682)"><g><path d="M 6.375 -8.015625 C 7.132812 -8.015625 7.738281 -7.863281 8.1875 -7.5625 C 8.644531 -7.269531 8.972656 -6.875 9.171875 -6.375 C 9.378906 -5.882812 9.484375 -5.335938 9.484375 -4.734375 L 9.484375 0 L 7.953125 0 L 7.953125 -4.5625 C 7.953125 -5.164062 7.78125 -5.660156 7.4375 -6.046875 C 7.101562 -6.429688 6.597656 -6.613281 5.921875 -6.59375 C 5.453125 -6.59375 5.035156 -6.488281 4.671875 -6.28125 C 4.304688 -6.082031 4.019531 -5.820312 3.8125 -5.5 C 3.601562 -5.1875 3.5 -4.859375 3.5 -4.515625 L 3.5 0 L 1.953125 0 L 1.953125 -7.859375 L 3.5 -7.859375 L 3.5 -6.546875 C 3.800781 -6.929688 4.203125 -7.269531 4.703125 -7.5625 C 5.203125 -7.863281 5.757812 -8.015625 6.375 -8.015625 Z M 6.375 -8.015625 "/></g></g></g><g fill="#020166" fill-opacity="1"><g transform="translate(125.848584, 15.02682)"><g><path d="M 9.734375 -7.859375 L 9.734375 0 L 8.1875 0 L 8.1875 -1.28125 C 8.007812 -1.039062 7.765625 -0.8125 7.453125 -0.59375 C 7.140625 -0.375 6.78125 -0.191406 6.375 -0.046875 C 5.976562 0.0859375 5.546875 0.15625 5.078125 0.15625 C 4.296875 0.15625 3.601562 -0.015625 3 -0.359375 C 2.394531 -0.710938 1.921875 -1.195312 1.578125 -1.8125 C 1.234375 -2.4375 1.0625 -3.148438 1.0625 -3.953125 C 1.0625 -4.753906 1.238281 -5.457031 1.59375 -6.0625 C 1.957031 -6.664062 2.457031 -7.140625 3.09375 -7.484375 C 3.726562 -7.835938 4.453125 -8.015625 5.265625 -8.015625 C 5.910156 -8.015625 6.484375 -7.890625 6.984375 -7.640625 C 7.492188 -7.398438 7.894531 -7.113281 8.1875 -6.78125 L 8.1875 -7.859375 Z M 5.4375 -1.265625 C 5.976562 -1.265625 6.460938 -1.378906 6.890625 -1.609375 C 7.316406 -1.847656 7.648438 -2.164062 7.890625 -2.5625 C 8.128906 -2.96875 8.25 -3.429688 8.25 -3.953125 C 8.25 -4.453125 8.128906 -4.898438 7.890625 -5.296875 C 7.648438 -5.691406 7.316406 -6.003906 6.890625 -6.234375 C 6.460938 -6.472656 5.976562 -6.59375 5.4375 -6.59375 C 4.882812 -6.59375 4.394531 -6.472656 3.96875 -6.234375 C 3.550781 -6.003906 3.222656 -5.691406 2.984375 -5.296875 C 2.753906 -4.898438 2.640625 -4.453125 2.640625 -3.953125 C 2.640625 -3.429688 2.753906 -2.96875 2.984375 -2.5625 C 3.222656 -2.164062 3.550781 -1.847656 3.96875 -1.609375 C 4.394531 -1.378906 4.882812 -1.265625 5.4375 -1.265625 Z M 5.4375 -1.265625 "/></g></g></g><g fill="#020166" fill-opacity="1"><g transform="translate(137.412453, 15.02682)"><g><path d="M 2.953125 1.265625 C 3.253906 1.472656 3.648438 1.65625 4.140625 1.8125 C 4.628906 1.976562 5.164062 2.0625 5.75 2.0625 C 6.570312 2.0625 7.222656 1.84375 7.703125 1.40625 C 8.191406 0.96875 8.4375 0.320312 8.4375 -0.53125 L 8.4375 -1.296875 C 8.28125 -1.054688 8.046875 -0.820312 7.734375 -0.59375 C 7.421875 -0.375 7.050781 -0.191406 6.625 -0.046875 C 6.207031 0.0859375 5.765625 0.15625 5.296875 0.15625 C 4.492188 0.15625 3.78125 -0.015625 3.15625 -0.359375 C 2.53125 -0.710938 2.035156 -1.195312 1.671875 -1.8125 C 1.316406 -2.4375 1.140625 -3.144531 1.140625 -3.9375 C 1.140625 -4.738281 1.320312 -5.441406 1.6875 -6.046875 C 2.0625 -6.660156 2.5625 -7.140625 3.1875 -7.484375 C 3.820312 -7.835938 4.550781 -8.015625 5.375 -8.015625 C 6.0625 -8.015625 6.675781 -7.878906 7.21875 -7.609375 C 7.757812 -7.347656 8.164062 -7.0625 8.4375 -6.75 L 8.4375 -7.859375 L 9.984375 -7.859375 L 9.984375 -0.71875 C 9.984375 0.257812 9.78125 1.050781 9.375 1.65625 C 8.976562 2.269531 8.457031 2.71875 7.8125 3 C 7.175781 3.289062 6.488281 3.4375 5.75 3.4375 C 5.039062 3.4375 4.390625 3.347656 3.796875 3.171875 C 3.210938 2.992188 2.742188 2.769531 2.390625 2.5 Z M 5.640625 -6.609375 C 5.078125 -6.609375 4.570312 -6.488281 4.125 -6.25 C 3.675781 -6.019531 3.328125 -5.703125 3.078125 -5.296875 C 2.828125 -4.898438 2.703125 -4.445312 2.703125 -3.9375 C 2.703125 -3.425781 2.828125 -2.96875 3.078125 -2.5625 C 3.328125 -2.164062 3.675781 -1.847656 4.125 -1.609375 C 4.570312 -1.378906 5.078125 -1.265625 5.640625 -1.265625 C 6.203125 -1.265625 6.695312 -1.378906 7.125 -1.609375 C 7.550781 -1.835938 7.882812 -2.15625 8.125 -2.5625 C 8.375 -2.96875 8.5 -3.425781 8.5 -3.9375 C 8.5 -4.457031 8.375 -4.914062 8.125 -5.3125 C 7.882812 -5.707031 7.550781 -6.019531 7.125 -6.25 C 6.695312 -6.488281 6.203125 -6.609375 5.640625 -6.609375 Z M 5.640625 -6.609375 "/></g></g></g><g fill="#020166" fill-opacity="1"><g transform="translate(149.230644, 15.02682)"><g><path d="M 9.265625 -1.03125 L 9.25 -1.03125 C 9 -0.832031 8.6875 -0.640625 8.3125 -0.453125 C 7.9375 -0.265625 7.523438 -0.113281 7.078125 0 C 6.628906 0.101562 6.171875 0.15625 5.703125 0.15625 C 4.796875 0.15625 3.992188 -0.015625 3.296875 -0.359375 C 2.597656 -0.710938 2.050781 -1.1875 1.65625 -1.78125 C 1.269531 -2.382812 1.078125 -3.070312 1.078125 -3.84375 C 1.078125 -4.726562 1.28125 -5.476562 1.6875 -6.09375 C 2.101562 -6.71875 2.648438 -7.195312 3.328125 -7.53125 C 4.015625 -7.863281 4.757812 -8.03125 5.5625 -8.03125 C 6.3125 -8.03125 6.988281 -7.867188 7.59375 -7.546875 C 8.207031 -7.222656 8.695312 -6.773438 9.0625 -6.203125 C 9.425781 -5.640625 9.609375 -4.976562 9.609375 -4.21875 L 9.59375 -3.5 L 2.640625 -3.5 C 2.753906 -2.8125 3.101562 -2.265625 3.6875 -1.859375 C 4.28125 -1.460938 5.019531 -1.265625 5.90625 -1.265625 C 6.5625 -1.265625 7.09375 -1.367188 7.5 -1.578125 C 7.914062 -1.785156 8.257812 -1.984375 8.53125 -2.171875 Z M 5.5625 -6.609375 C 4.851562 -6.609375 4.234375 -6.46875 3.703125 -6.1875 C 3.179688 -5.90625 2.835938 -5.421875 2.671875 -4.734375 L 8.03125 -4.734375 L 8.03125 -4.890625 C 8 -5.234375 7.863281 -5.535156 7.625 -5.796875 C 7.382812 -6.054688 7.082031 -6.253906 6.71875 -6.390625 C 6.351562 -6.535156 5.96875 -6.609375 5.5625 -6.609375 Z M 5.5625 -6.609375 "/></g></g></g><g fill="#020166" fill-opacity="1"><g transform="translate(160.061473, 15.02682)"><g><path d="M 6.3125 -8 C 6.976562 -8 7.535156 -7.851562 7.984375 -7.5625 C 8.441406 -7.28125 8.765625 -6.867188 8.953125 -6.328125 C 9.117188 -6.566406 9.359375 -6.816406 9.671875 -7.078125 C 9.984375 -7.335938 10.34375 -7.554688 10.75 -7.734375 C 11.15625 -7.910156 11.597656 -8 12.078125 -8 C 12.828125 -8 13.414062 -7.847656 13.84375 -7.546875 C 14.269531 -7.242188 14.570312 -6.835938 14.75 -6.328125 C 14.925781 -5.828125 15.015625 -5.269531 15.015625 -4.65625 L 15.015625 0 L 13.453125 0 L 13.453125 -4.5 C 13.453125 -5.113281 13.316406 -5.613281 13.046875 -6 C 12.785156 -6.382812 12.328125 -6.578125 11.671875 -6.578125 C 11.191406 -6.578125 10.757812 -6.472656 10.375 -6.265625 C 10 -6.066406 9.703125 -5.796875 9.484375 -5.453125 C 9.273438 -5.117188 9.171875 -4.75 9.171875 -4.34375 L 9.171875 0 L 7.625 0 L 7.625 -4.53125 C 7.625 -5.132812 7.472656 -5.625 7.171875 -6 C 6.878906 -6.382812 6.394531 -6.578125 5.71875 -6.578125 C 5.269531 -6.578125 4.867188 -6.46875 4.515625 -6.25 C 4.160156 -6.039062 3.882812 -5.78125 3.6875 -5.46875 C 3.488281 -5.15625 3.390625 -4.828125 3.390625 -4.484375 L 3.390625 0 L 1.828125 0 L 1.828125 -7.859375 L 3.390625 -7.859375 L 3.390625 -6.59375 C 3.660156 -6.945312 4.050781 -7.269531 4.5625 -7.5625 C 5.070312 -7.851562 5.65625 -8 6.3125 -8 Z M 6.3125 -8 "/></g></g></g><g fill="#020166" fill-opacity="1"><g transform="translate(176.861254, 15.02682)"><g><path d="M 9.265625 -1.03125 L 9.25 -1.03125 C 9 -0.832031 8.6875 -0.640625 8.3125 -0.453125 C 7.9375 -0.265625 7.523438 -0.113281 7.078125 0 C 6.628906 0.101562 6.171875 0.15625 5.703125 0.15625 C 4.796875 0.15625 3.992188 -0.015625 3.296875 -0.359375 C 2.597656 -0.710938 2.050781 -1.1875 1.65625 -1.78125 C 1.269531 -2.382812 1.078125 -3.070312 1.078125 -3.84375 C 1.078125 -4.726562 1.28125 -5.476562 1.6875 -6.09375 C 2.101562 -6.71875 2.648438 -7.195312 3.328125 -7.53125 C 4.015625 -7.863281 4.757812 -8.03125 5.5625 -8.03125 C 6.3125 -8.03125 6.988281 -7.867188 7.59375 -7.546875 C 8.207031 -7.222656 8.695312 -6.773438 9.0625 -6.203125 C 9.425781 -5.640625 9.609375 -4.976562 9.609375 -4.21875 L 9.59375 -3.5 L 2.640625 -3.5 C 2.753906 -2.8125 3.101562 -2.265625 3.6875 -1.859375 C 4.28125 -1.460938 5.019531 -1.265625 5.90625 -1.265625 C 6.5625 -1.265625 7.09375 -1.367188 7.5 -1.578125 C 7.914062 -1.785156 8.257812 -1.984375 8.53125 -2.171875 Z M 5.5625 -6.609375 C 4.851562 -6.609375 4.234375 -6.46875 3.703125 -6.1875 C 3.179688 -5.90625 2.835938 -5.421875 2.671875 -4.734375 L 8.03125 -4.734375 L 8.03125 -4.890625 C 8 -5.234375 7.863281 -5.535156 7.625 -5.796875 C 7.382812 -6.054688 7.082031 -6.253906 6.71875 -6.390625 C 6.351562 -6.535156 5.96875 -6.609375 5.5625 -6.609375 Z M 5.5625 -6.609375 "/></g></g></g><g fill="#020166" fill-opacity="1"><g transform="translate(187.692094, 15.02682)"><g><path d="M 6.375 -8.015625 C 7.132812 -8.015625 7.738281 -7.863281 8.1875 -7.5625 C 8.644531 -7.269531 8.972656 -6.875 9.171875 -6.375 C 9.378906 -5.882812 9.484375 -5.335938 9.484375 -4.734375 L 9.484375 0 L 7.953125 0 L 7.953125 -4.5625 C 7.953125 -5.164062 7.78125 -5.660156 7.4375 -6.046875 C 7.101562 -6.429688 6.597656 -6.613281 5.921875 -6.59375 C 5.453125 -6.59375 5.035156 -6.488281 4.671875 -6.28125 C 4.304688 -6.082031 4.019531 -5.820312 3.8125 -5.5 C 3.601562 -5.1875 3.5 -4.859375 3.5 -4.515625 L 3.5 0 L 1.953125 0 L 1.953125 -7.859375 L 3.5 -7.859375 L 3.5 -6.546875 C 3.800781 -6.929688 4.203125 -7.269531 4.703125 -7.5625 C 5.203125 -7.863281 5.757812 -8.015625 6.375 -8.015625 Z M 6.375 -8.015625 "/></g></g></g><g fill="#020166" fill-opacity="1"><g transform="translate(199.106355, 15.02682)"><g><path d="M 4.53125 0 L 3 0 L 3 -6.359375 L 1 -6.359375 L 1 -7.859375 L 3 -7.859375 L 3 -10.046875 L 4.53125 -10.046875 L 4.53125 -7.859375 L 6.84375 -7.859375 L 6.84375 -6.359375 L 4.53125 -6.359375 Z M 4.53125 0 "/></g></g></g><g fill="#020166" fill-opacity="1"><g transform="translate(207.035022, 15.02682)"><g/></g></g><g fill="#020166" fill-opacity="1"><g transform="translate(212.450437, 15.02682)"><g><path d="M 2.296875 -3.1875 C 2.773438 -2.59375 3.273438 -2.128906 3.796875 -1.796875 C 4.328125 -1.460938 4.992188 -1.296875 5.796875 -1.296875 C 6.203125 -1.296875 6.59375 -1.351562 6.96875 -1.46875 C 7.351562 -1.582031 7.664062 -1.75 7.90625 -1.96875 C 8.144531 -2.195312 8.265625 -2.484375 8.265625 -2.828125 C 8.265625 -3.328125 8.015625 -3.691406 7.515625 -3.921875 C 7.015625 -4.160156 6.316406 -4.347656 5.421875 -4.484375 C 4.296875 -4.679688 3.398438 -5.019531 2.734375 -5.5 C 2.066406 -5.988281 1.734375 -6.703125 1.734375 -7.640625 C 1.734375 -8.253906 1.914062 -8.785156 2.28125 -9.234375 C 2.65625 -9.679688 3.144531 -10.023438 3.75 -10.265625 C 4.363281 -10.503906 5.035156 -10.625 5.765625 -10.625 C 6.679688 -10.625 7.472656 -10.460938 8.140625 -10.140625 C 8.816406 -9.828125 9.347656 -9.375 9.734375 -8.78125 L 8.625 -7.640625 C 8.300781 -8.097656 7.894531 -8.46875 7.40625 -8.75 C 6.925781 -9.03125 6.363281 -9.171875 5.71875 -9.171875 C 5.070312 -9.171875 4.523438 -9.039062 4.078125 -8.78125 C 3.628906 -8.53125 3.40625 -8.175781 3.40625 -7.71875 C 3.40625 -7.195312 3.640625 -6.816406 4.109375 -6.578125 C 4.578125 -6.347656 5.203125 -6.171875 5.984375 -6.046875 C 6.492188 -5.960938 6.984375 -5.851562 7.453125 -5.71875 C 7.921875 -5.582031 8.34375 -5.398438 8.71875 -5.171875 C 9.09375 -4.941406 9.390625 -4.664062 9.609375 -4.34375 C 9.828125 -4.019531 9.9375 -3.625 9.9375 -3.15625 C 9.9375 -2.488281 9.765625 -1.90625 9.421875 -1.40625 C 9.078125 -0.914062 8.582031 -0.53125 7.9375 -0.25 C 7.300781 0.0195312 6.550781 0.15625 5.6875 0.15625 C 4.769531 0.15625 3.9375 -0.00390625 3.1875 -0.328125 C 2.4375 -0.648438 1.78125 -1.171875 1.21875 -1.890625 Z M 2.296875 -3.1875 "/></g></g></g><g fill="#020166" fill-opacity="1"><g transform="translate(223.640315, 15.02682)"><g><path d="M 3.25 3.4375 L 4.765625 0.40625 L 0.703125 -7.859375 L 2.5 -7.859375 L 4.90625 -2.671875 C 5.03125 -2.429688 5.148438 -2.179688 5.265625 -1.921875 C 5.378906 -1.660156 5.472656 -1.414062 5.546875 -1.1875 C 5.648438 -1.425781 5.753906 -1.671875 5.859375 -1.921875 C 5.960938 -2.179688 6.082031 -2.453125 6.21875 -2.734375 L 8.359375 -7.859375 L 10.15625 -7.859375 L 6.46875 0 L 4.890625 3.4375 Z M 3.25 3.4375 "/></g></g></g><g fill="#020166" fill-opacity="1"><g transform="translate(234.351453, 15.02682)"><g><path d="M 7.078125 -5.765625 C 6.742188 -6.046875 6.34375 -6.28125 5.875 -6.46875 C 5.414062 -6.65625 4.988281 -6.75 4.59375 -6.75 C 4.332031 -6.75 4.066406 -6.722656 3.796875 -6.671875 C 3.523438 -6.617188 3.289062 -6.523438 3.09375 -6.390625 C 2.90625 -6.265625 2.8125 -6.070312 2.8125 -5.8125 C 2.8125 -5.570312 2.90625 -5.378906 3.09375 -5.234375 C 3.289062 -5.085938 3.546875 -4.96875 3.859375 -4.875 C 4.171875 -4.789062 4.515625 -4.707031 4.890625 -4.625 C 5.273438 -4.539062 5.648438 -4.445312 6.015625 -4.34375 C 6.378906 -4.238281 6.707031 -4.097656 7 -3.921875 C 7.289062 -3.753906 7.523438 -3.535156 7.703125 -3.265625 C 7.890625 -3.003906 7.984375 -2.675781 7.984375 -2.28125 C 7.984375 -1.757812 7.828125 -1.316406 7.515625 -0.953125 C 7.210938 -0.597656 6.8125 -0.320312 6.3125 -0.125 C 5.820312 0.0625 5.289062 0.15625 4.71875 0.15625 C 4.007812 0.15625 3.332031 0.046875 2.6875 -0.171875 C 2.050781 -0.390625 1.515625 -0.753906 1.078125 -1.265625 L 2.125 -2.203125 C 2.445312 -1.867188 2.816406 -1.601562 3.234375 -1.40625 C 3.660156 -1.21875 4.160156 -1.125 4.734375 -1.125 C 4.984375 -1.125 5.238281 -1.148438 5.5 -1.203125 C 5.769531 -1.265625 6 -1.367188 6.1875 -1.515625 C 6.382812 -1.660156 6.484375 -1.863281 6.484375 -2.125 C 6.484375 -2.351562 6.382812 -2.535156 6.1875 -2.671875 C 6 -2.816406 5.742188 -2.929688 5.421875 -3.015625 C 5.109375 -3.097656 4.769531 -3.175781 4.40625 -3.25 C 3.863281 -3.363281 3.351562 -3.503906 2.875 -3.671875 C 2.394531 -3.835938 2.003906 -4.082031 1.703125 -4.40625 C 1.410156 -4.726562 1.265625 -5.179688 1.265625 -5.765625 C 1.265625 -6.222656 1.410156 -6.617188 1.703125 -6.953125 C 2.003906 -7.296875 2.40625 -7.554688 2.90625 -7.734375 C 3.40625 -7.921875 3.953125 -8.015625 4.546875 -8.015625 C 4.929688 -8.015625 5.332031 -7.972656 5.75 -7.890625 C 6.164062 -7.804688 6.566406 -7.671875 6.953125 -7.484375 C 7.335938 -7.304688 7.664062 -7.066406 7.9375 -6.765625 Z M 7.078125 -5.765625 "/></g></g></g><g fill="#020166" fill-opacity="1"><g transform="translate(243.417055, 15.02682)"><g><path d="M 4.53125 0 L 3 0 L 3 -6.359375 L 1 -6.359375 L 1 -7.859375 L 3 -7.859375 L 3 -10.046875 L 4.53125 -10.046875 L 4.53125 -7.859375 L 6.84375 -7.859375 L 6.84375 -6.359375 L 4.53125 -6.359375 Z M 4.53125 0 "/></g></g></g><g fill="#020166" fill-opacity="1"><g transform="translate(251.270913, 15.02682)"><g><path d="M 9.265625 -1.03125 L 9.25 -1.03125 C 9 -0.832031 8.6875 -0.640625 8.3125 -0.453125 C 7.9375 -0.265625 7.523438 -0.113281 7.078125 0 C 6.628906 0.101562 6.171875 0.15625 5.703125 0.15625 C 4.796875 0.15625 3.992188 -0.015625 3.296875 -0.359375 C 2.597656 -0.710938 2.050781 -1.1875 1.65625 -1.78125 C 1.269531 -2.382812 1.078125 -3.070312 1.078125 -3.84375 C 1.078125 -4.726562 1.28125 -5.476562 1.6875 -6.09375 C 2.101562 -6.71875 2.648438 -7.195312 3.328125 -7.53125 C 4.015625 -7.863281 4.757812 -8.03125 5.5625 -8.03125 C 6.3125 -8.03125 6.988281 -7.867188 7.59375 -7.546875 C 8.207031 -7.222656 8.695312 -6.773438 9.0625 -6.203125 C 9.425781 -5.640625 9.609375 -4.976562 9.609375 -4.21875 L 9.59375 -3.5 L 2.640625 -3.5 C 2.753906 -2.8125 3.101562 -2.265625 3.6875 -1.859375 C 4.28125 -1.460938 5.019531 -1.265625 5.90625 -1.265625 C 6.5625 -1.265625 7.09375 -1.367188 7.5 -1.578125 C 7.914062 -1.785156 8.257812 -1.984375 8.53125 -2.171875 Z M 5.5625 -6.609375 C 4.851562 -6.609375 4.234375 -6.46875 3.703125 -6.1875 C 3.179688 -5.90625 2.835938 -5.421875 2.671875 -4.734375 L 8.03125 -4.734375 L 8.03125 -4.890625 C 8 -5.234375 7.863281 -5.535156 7.625 -5.796875 C 7.382812 -6.054688 7.082031 -6.253906 6.71875 -6.390625 C 6.351562 -6.535156 5.96875 -6.609375 5.5625 -6.609375 Z M 5.5625 -6.609375 "/></g></g></g><g fill="#020166" fill-opacity="1"><g transform="translate(262.101742, 15.02682)"><g><path d="M 6.3125 -8 C 6.976562 -8 7.535156 -7.851562 7.984375 -7.5625 C 8.441406 -7.28125 8.765625 -6.867188 8.953125 -6.328125 C 9.117188 -6.566406 9.359375 -6.816406 9.671875 -7.078125 C 9.984375 -7.335938 10.34375 -7.554688 10.75 -7.734375 C 11.15625 -7.910156 11.597656 -8 12.078125 -8 C 12.828125 -8 13.414062 -7.847656 13.84375 -7.546875 C 14.269531 -7.242188 14.570312 -6.835938 14.75 -6.328125 C 14.925781 -5.828125 15.015625 -5.269531 15.015625 -4.65625 L 15.015625 0 L 13.453125 0 L 13.453125 -4.5 C 13.453125 -5.113281 13.316406 -5.613281 13.046875 -6 C 12.785156 -6.382812 12.328125 -6.578125 11.671875 -6.578125 C 11.191406 -6.578125 10.757812 -6.472656 10.375 -6.265625 C 10 -6.066406 9.703125 -5.796875 9.484375 -5.453125 C 9.273438 -5.117188 9.171875 -4.75 9.171875 -4.34375 L 9.171875 0 L 7.625 0 L 7.625 -4.53125 C 7.625 -5.132812 7.472656 -5.625 7.171875 -6 C 6.878906 -6.382812 6.394531 -6.578125 5.71875 -6.578125 C 5.269531 -6.578125 4.867188 -6.46875 4.515625 -6.25 C 4.160156 -6.039062 3.882812 -5.78125 3.6875 -5.46875 C 3.488281 -5.15625 3.390625 -4.828125 3.390625 -4.484375 L 3.390625 0 L 1.828125 0 L 1.828125 -7.859375 L 3.390625 -7.859375 L 3.390625 -6.59375 C 3.660156 -6.945312 4.050781 -7.269531 4.5625 -7.5625 C 5.070312 -7.851562 5.65625 -8 6.3125 -8 Z M 6.3125 -8 "/></g></g></g></g></g></svg>